<?xml version="1.0" ?><svg id="flat" viewBox="0 0 340 340" xmlns="http://www.w3.org/2000/svg"><title/><path d="M299.366,200.664s-.128-.268-.38-.737a28.935,28.935,0,0,0-25.853-15.157l-7.2.084a14.7,14.7,0,0,1-14.868-14.7V144.37H226.1v25.788a14.7,14.7,0,0,1-14.868,14.7l-7.2-.084a28.938,28.938,0,0,0-25.855,15.158c-.251.468-.379.736-.379.736a47.347,47.347,0,0,0-2.96,13.16,23.64,23.64,0,0,1-6.728,14.864l-30.8,31.588-37.184-52.857a22.132,22.132,0,0,0,6.8-3.842,24.226,24.226,0,0,0,7.905-11.728c.654-2.19,2.906-23.433,2.906-23.433l1.09-11.966a8.078,8.078,0,0,0-7.017-8.858,7.894,7.894,0,0,0-8.678,7.183l2.27-26.744A7.5,7.5,0,0,0,99.7,120a7.34,7.34,0,0,0-8.9,6.522l.623-9.052a6.988,6.988,0,0,0-7.171-7.575A7.2,7.2,0,0,0,77.522,116a346.339,346.339,0,0,0-4.38,40.464,1,1,0,0,1-1.966.2l-9.264-36.138a7.7,7.7,0,0,0-7.065-5.884,7.5,7.5,0,0,0-7.509,9.416l4.611,17.37a6.524,6.524,0,0,0-7.86-4.661,6.674,6.674,0,0,0-4.82,7.721l4.314,23.923A77.285,77.285,0,0,0,50,191.74a29.726,29.726,0,0,0,26.916,17.037h3.6c5.677,12.571,23.519,50.282,44.676,76.927a12.944,12.944,0,0,0,18.387,1.885c14.621-12.1,41.917-35.348,56.458-51.937V330h96.952V239.758a39.046,39.046,0,0,1,1.664-11.607A53.019,53.019,0,0,0,299.366,200.664Z" style="fill:#9bd6b0"/><path d="M226.627,252.7H213.946a15.611,15.611,0,0,1-9.458-3.224l-4.454-3.313v9.955a23.609,23.609,0,0,0,13.912,4.582h12.681a4,4,0,0,0,0-8Z" style="fill:#5d9670"/><path d="M273.7,330h5.835V233.247a18.6,18.6,0,0,1,3.164-10.4l2.4-3.576a4,4,0,0,0-6.642-4.457l-2.4,3.576a26.562,26.562,0,0,0-4.521,14.852v15.88l-.5.383a15.563,15.563,0,0,1-9.412,3.19H248.946a4,4,0,1,0,0,8h12.681a23.581,23.581,0,0,0,9.912-2.22V330Z" style="fill:#5d9670"/><path d="M248.418,294.012c-8.976,0-12.51-3.893-12.967-4.448a4,4,0,0,1-.915-2.545v-17.24a4,4,0,0,1,8,0v15.18c1.657.777,5.452,1.8,12.6.259a4,4,0,0,1,1.688,7.82A40.042,40.042,0,0,1,248.418,294.012Z" style="fill:#5d9670"/><path d="M228.655,294.012a39.983,39.983,0,0,1-8.411-.974,4,4,0,0,1,1.687-7.82c10.283,2.216,13.625-.869,13.659-.9a1.063,1.063,0,0,0-.139.157l6.17,5.091C241.164,290.118,237.629,294.012,228.655,294.012Z" style="fill:#5d9670"/><path d="M238.536,318.892a4,4,0,0,1-4-4V300.546a4,4,0,0,1,8,0v14.346A4,4,0,0,1,238.536,318.892Z" style="fill:#5d9670"/><path d="M231.01,210.667a3.978,3.978,0,0,1-2.027-.555l-11.813-6.961a4,4,0,0,1,4.06-6.892l11.814,6.961a4,4,0,0,1-2.034,7.447Z" style="fill:#5d9670"/><path d="M249.848,210.722a4,4,0,0,1-2.186-7.352l9.071-5.907a4,4,0,1,1,4.365,6.7l-9.071,5.907A3.973,3.973,0,0,1,249.848,210.722Z" style="fill:#5d9670"/><path d="M251.063,170.158V144.37H226.1v15.114c5.917,5.214,16.168,13.168,25.734,15.337A14.648,14.648,0,0,1,251.063,170.158Z" style="fill:#5d9670"/><path d="M295.494,76.9q-.038-1.233-.11-2.493a74.094,74.094,0,0,0-14.617-40.336C272.094,22.542,258.16,10,238.582,10c-19.233,0-33.02,12.1-41.722,23.458a74.527,74.527,0,0,0-15.1,41.251q-.079,1.452-.111,2.867a74.74,74.74,0,0,0,27.333,58.982c7.553,6.269,15.378,13.3,21.084,18.548a12.585,12.585,0,0,0,17.037-.009c5.7-5.242,13.521-12.269,21.066-18.532A74.817,74.817,0,0,0,295.494,76.9Z" style="fill:#9bd6b0"/><path d="M228.013,72.075a32.4,32.4,0,0,1,3.5,11.82,49.867,49.867,0,0,1-2.444,17.566,9.8,9.8,0,0,1-14.172,5.1c-5.789-3.371-12.747-9.347-15.456-19.352a27.811,27.811,0,0,1-.028-11.5C202.479,61.73,221.266,59.452,228.013,72.075Z" style="fill:#566287"/><path d="M249.147,72.075a32.414,32.414,0,0,0-3.5,11.82,49.881,49.881,0,0,0,2.445,17.566,9.8,9.8,0,0,0,14.172,5.1c5.789-3.371,12.746-9.347,15.455-19.352a27.82,27.82,0,0,0,.029-11.5C274.681,61.73,255.894,59.452,249.147,72.075Z" style="fill:#566287"/><circle cx="208.961" cy="80.019" r="5.228" style="fill:#fff"/><circle cx="256.155" cy="80.019" r="5.228" style="fill:#fff"/><path d="M233.075,124.67a4,4,0,0,1-3.32-1.78,3.55,3.55,0,0,1-.369-.7,3.856,3.856,0,0,1-.231-.739,3.891,3.891,0,0,1,0-1.57,3.887,3.887,0,0,1,.231-.74,3.578,3.578,0,0,1,.369-.7,4.006,4.006,0,0,1,.49-.6,4.149,4.149,0,0,1,.61-.5,3.707,3.707,0,0,1,.69-.37,3.959,3.959,0,0,1,2.31-.23,3.832,3.832,0,0,1,.75.23,3.39,3.39,0,0,1,.69.37,3.644,3.644,0,0,1,.61.5,4.81,4.81,0,0,1,.5.6,5.234,5.234,0,0,1,.37.7,3.922,3.922,0,0,1,.22.74,3.468,3.468,0,0,1,.08.79,3.981,3.981,0,0,1-1.17,2.82,3.251,3.251,0,0,1-.61.5,3.436,3.436,0,0,1-.69.369,3.768,3.768,0,0,1-.75.231A4.121,4.121,0,0,1,233.075,124.67Z" style="fill:#5d9670"/><path d="M244.615,124.66a4.122,4.122,0,0,1-.78-.07,5.246,5.246,0,0,1-.75-.231,4.532,4.532,0,0,1-.69-.369,3.22,3.22,0,0,1-.6-.5,4,4,0,0,1-1.18-2.83,4.121,4.121,0,0,1,.08-.78,4.22,4.22,0,0,1,.231-.75,3.8,3.8,0,0,1,.369-.691,4.006,4.006,0,0,1,.49-.6,4.061,4.061,0,0,1,3.62-1.1,3.956,3.956,0,0,1,.74.23,3.722,3.722,0,0,1,.69.37,3.175,3.175,0,0,1,.61.5,4.012,4.012,0,0,1,.5.6,4.548,4.548,0,0,1,.37.691,4.3,4.3,0,0,1,.23.75,3.891,3.891,0,0,1,0,1.57,3.924,3.924,0,0,1-.23.739,4.176,4.176,0,0,1-.37.7,4.02,4.02,0,0,1-.5.6,3.251,3.251,0,0,1-.61.5,3.719,3.719,0,0,1-.69.369,4.764,4.764,0,0,1-.74.231A4.219,4.219,0,0,1,244.615,124.66Z" style="fill:#5d9670"/><path d="M194.665,222.291c-10.16,13.3-32.946,41.605-52.633,55.218a9.664,9.664,0,0,1-11.463-.3,9.736,9.736,0,0,0-11.84-.114c2.111,2.959,4.266,5.845,6.459,8.606a12.945,12.945,0,0,0,18.388,1.886c14.622-12.1,41.917-35.348,56.458-51.937V224.109A2.991,2.991,0,0,0,194.665,222.291Z" style="fill:#5d9670"/><path d="M103.721,150.818a4,4,0,0,0-4.545,3.367L97.413,166H57.922a4,4,0,0,0,0,8H91.453a20.6,20.6,0,0,0-7.388,12.48,4,4,0,1,0,7.877,1.4c1.4-7.86,9.259-10.463,9.571-10.563a4,4,0,0,0,2.784-3.234l2.791-18.716A4,4,0,0,0,103.721,150.818Z" style="fill:#5d9670"/></svg>